<svg id="Layer_1" data-name="Layer 1" xmlns="http://www.w3.org/2000/svg" viewBox="0 0 474.5 294"><defs><style>.cls-1,.cls-4{fill:#222;}.cls-2{fill:#5bff2e;}.cls-3{fill:none;}.cls-3,.cls-4{stroke:#5bff2e;stroke-miterlimit:10;stroke-width:4px;}</style></defs><rect class="cls-1" x="2" y="2" width="454.5" height="253.91"/><path class="cls-2" d="M694,158V407.91H243.5V158H694m4-4H239.5V411.91H698V154Z" transform="translate(-239.5 -154)"/><line class="cls-3" x1="29.5" y1="31" x2="428.5" y2="31"/><line class="cls-1" x1="29.5" y1="31" x2="428.5" y2="31"/><line class="cls-3" x1="29.5" y1="52.5" x2="332.5" y2="52.5"/><line class="cls-1" x1="29.5" y1="52.5" x2="332.5" y2="52.5"/><line class="cls-3" x1="29.5" y1="74" x2="332.5" y2="74"/><line class="cls-1" x1="29.5" y1="74" x2="332.5" y2="74"/><rect class="cls-1" x="376.5" y="86" width="96" height="206"/><path class="cls-2" d="M710,242V444H618V242h92m4-4H614V448H714V238Z" transform="translate(-239.5 -154)"/><line class="cls-3" x1="385.5" y1="102" x2="464.5" y2="102"/><line class="cls-1" x1="385.5" y1="102" x2="464.5" y2="102"/><line class="cls-3" x1="385.5" y1="117" x2="445.49" y2="117"/><line class="cls-1" x1="385.5" y1="117" x2="445.49" y2="117"/><line class="cls-3" x1="385.5" y1="132" x2="445.49" y2="132"/><line class="cls-1" x1="385.5" y1="132" x2="445.49" y2="132"/><line class="cls-3" x1="184.5" y1="264" x2="184.5" y2="292"/><line class="cls-1" x1="184.5" y1="264" x2="184.5" y2="292"/><line class="cls-3" x1="274.5" y1="264" x2="274.5" y2="292"/><line class="cls-1" x1="274.5" y1="264" x2="274.5" y2="292"/><line class="cls-4" x1="155.5" y1="292" x2="302.5" y2="292"/></svg>